<svg id="Ebene_1" data-name="Ebene 1" xmlns="http://www.w3.org/2000/svg" viewBox="0 0 756.72 106.16"><defs><style>.cls-1{fill:#0f2d5b;}.cls-2{fill:none;stroke:#0f2d5b;stroke-width:3px;}.cls-3{fill:#fff;}.cls-4{isolation:isolate;}</style></defs><title>Zeichenfläche 1</title><g id="g151"><g id="g157"><path id="path159" class="cls-1" d="M39.91,44.42q1.14-11,5.89-15.69C49,25.56,53.19,24,58.39,24a17.21,17.21,0,0,1,14.42,7.16c2.28,3,3.74,7.38,4.34,13.28ZM1.5,62.51H77.24c-.67,6.08-2.31,10.58-4.91,13.56A17.89,17.89,0,0,1,58,82.48a21.32,21.32,0,0,1-10.59-2.79,24.31,24.31,0,0,1-6.59-6.21L3.62,76.9q8.56,14.88,20.6,21.33t34.64,6.43q19.59,0,30.84-5.51t18.6-17.56q7.37-12,7.38-28.27,0-23.1-14.8-37.4T60,1.6Q38.82,1.6,26.57,8A43.06,43.06,0,0,0,7.9,26.57Q1.48,38.74,1.5,58.23Z"/></g><g id="g161"><path id="path163" class="cls-2" d="M39.91,44.42q1.14-11,5.89-15.69C49,25.56,53.19,24,58.39,24a17.21,17.21,0,0,1,14.42,7.16c2.28,3,3.74,7.38,4.34,13.28ZM1.5,62.51H77.24c-.67,6.08-2.31,10.58-4.91,13.56A17.89,17.89,0,0,1,58,82.48a21.32,21.32,0,0,1-10.59-2.79,24.31,24.31,0,0,1-6.59-6.21L3.62,76.9q8.56,14.88,20.6,21.33t34.64,6.43q19.59,0,30.84-5.51t18.6-17.56q7.37-12,7.38-28.27,0-23.1-14.8-37.4T60,1.6Q38.82,1.6,26.57,8A43.06,43.06,0,0,0,7.9,26.57Q1.48,38.74,1.5,58.23Z"/></g><g id="g165"><path id="path167" class="cls-3" d="M162.66,44.32q-1.14-11-5.89-15.69c-3.2-3.17-7.38-4.75-12.58-4.75A17.22,17.22,0,0,0,129.77,31c-2.28,3-3.74,7.38-4.34,13.28Zm38.41,18.1H125.33C126,68.5,127.64,73,130.24,76a17.89,17.89,0,0,0,14.29,6.4,21.32,21.32,0,0,0,10.59-2.79,24.32,24.32,0,0,0,6.59-6.21L199,76.8q-8.56,14.88-20.6,21.33t-34.64,6.43q-19.59,0-30.84-5.51T94.27,81.49q-7.37-12-7.38-28.27,0-23.1,14.8-37.4T142.6,1.5q21.15,0,33.4,6.43a43.06,43.06,0,0,1,18.67,18.54q6.42,12.17,6.4,31.66Z"/></g><g id="g169"><path id="path171" class="cls-2" d="M162.66,44.32q-1.14-11-5.89-15.69c-3.2-3.17-7.38-4.75-12.58-4.75A17.22,17.22,0,0,0,129.77,31c-2.28,3-3.74,7.38-4.34,13.28Zm38.41,18.1H125.33C126,68.5,127.64,73,130.24,76a17.89,17.89,0,0,0,14.29,6.4,21.32,21.32,0,0,0,10.59-2.79,24.32,24.32,0,0,0,6.59-6.21L199,76.8q-8.56,14.88-20.6,21.33t-34.64,6.43q-19.59,0-30.84-5.51T94.27,81.49q-7.37-12-7.38-28.27,0-23.1,14.8-37.4T142.6,1.5q21.15,0,33.4,6.43a43.06,43.06,0,0,1,18.67,18.54q6.42,12.17,6.4,31.66Z"/></g><g id="text175" class="cls-4"><g class="cls-4"><path class="cls-1" d="M262.9,75.41H211a28,28,0,0,1,5.42-13.15q4.52-6.16,17-14.54,7.61-5.14,9.73-7.8a8.28,8.28,0,0,0,2.13-5.06,5.67,5.67,0,0,0-2.1-4.42,8.62,8.62,0,0,0-10.71.06q-2.1,1.89-2.83,6.68L212.25,35.9q1-6.64,3.74-10.37a17.1,17.1,0,0,1,7.67-5.72q4.95-2,13.7-2,9.13,0,14.21,1.89a17.1,17.1,0,0,1,8,5.81,14.39,14.39,0,0,1,2.91,8.79,16.85,16.85,0,0,1-3.34,9.89Q255.8,48.92,247,54.55q-5.23,3.28-7,4.6t-4.14,3.44h27Z"/></g><g class="cls-4"><path class="cls-1" d="M322,58.8H287.38a9.64,9.64,0,0,0,2.25,5.64,8.57,8.57,0,0,0,6.54,2.67A10.61,10.61,0,0,0,301,66a11.07,11.07,0,0,0,3-2.59l17,1.43a23.34,23.34,0,0,1-9.43,8.86q-5.52,2.69-15.85,2.68-9,0-14.11-2.3a20.05,20.05,0,0,1-8.52-7.3A20.52,20.52,0,0,1,269.79,55a19.72,19.72,0,0,1,6.78-15.57q6.78-5.95,18.72-5.95,9.69,0,15.3,2.67a19,19,0,0,1,8.54,7.73Q322,48.92,322,57Zm-17.59-7.53q-.51-4.56-2.7-6.53a8.28,8.28,0,0,0-5.76-2,8.12,8.12,0,0,0-6.59,3,10.26,10.26,0,0,0-2,5.52Z"/></g><g class="cls-4"><path class="cls-1" d="M356.76,56.68l18.31-1a12,12,0,0,0,2.42,6.18q3,3.44,8.5,3.44a10.06,10.06,0,0,0,6.35-1.76,5.11,5.11,0,0,0,2.23-4.08,5,5,0,0,0-2.12-3.94q-2.13-1.74-9.86-3.28-12.66-2.59-18.06-6.88a13.33,13.33,0,0,1-5.44-10.93,13.91,13.91,0,0,1,2.78-8.25,18.22,18.22,0,0,1,8.37-6.1q5.59-2.22,15.32-2.22,11.94,0,18.21,4t7.46,12.84l-18.14,1a8.62,8.62,0,0,0-3-5.56,10.44,10.44,0,0,0-6.39-1.74,8.27,8.27,0,0,0-5.06,1.29,3.85,3.85,0,0,0-1.7,3.15,3.07,3.07,0,0,0,1.4,2.43q1.36,1.12,6.46,2.09,12.62,2.47,18.08,5a18.56,18.56,0,0,1,7.95,6.28A14.83,14.83,0,0,1,413.27,57,16.81,16.81,0,0,1,410,67a20.4,20.4,0,0,1-9.26,7q-5.95,2.38-15,2.38-15.89,0-22-5.56A21.09,21.09,0,0,1,356.76,56.68Z"/></g><g class="cls-4"><path class="cls-1" d="M416.82,34.39h18.25l9.31,27.31L453,34.39h17l-17.9,43.83q-3.06,7.5-6.24,10.13-4.5,3.71-13.72,3.71a108.76,108.76,0,0,1-11.55-.93l-1.36-11a29.89,29.89,0,0,0,8.32,1.08A8.68,8.68,0,0,0,432.55,80a9.65,9.65,0,0,0,3.21-4.56Z"/></g><g class="cls-4"><path class="cls-1" d="M471.9,64l17.17-1.47a7.73,7.73,0,0,0,3,4,9.51,9.51,0,0,0,5.1,1.2,9.26,9.26,0,0,0,5.4-1.35A3,3,0,0,0,504,63.87a2.88,2.88,0,0,0-2-2.62,38.66,38.66,0,0,0-7.43-1.62A84,84,0,0,1,482.12,57a13.12,13.12,0,0,1-5.91-4.11,10,10,0,0,1-2.4-6.6,10.19,10.19,0,0,1,2.59-7,15.56,15.56,0,0,1,7.14-4.38,41.48,41.48,0,0,1,12.19-1.45q8.07,0,11.92,1.12a15.92,15.92,0,0,1,6.42,3.48,18,18,0,0,1,4.27,6.37l-16.4,1.47a5.11,5.11,0,0,0-2.12-2.9,9.34,9.34,0,0,0-4.93-1.24,7.54,7.54,0,0,0-4.27.94A2.76,2.76,0,0,0,489.27,45a2.45,2.45,0,0,0,1.7,2.28q1.7.77,7.39,1.39,8.63.89,12.83,2.47a14,14,0,0,1,6.44,4.51,10.41,10.41,0,0,1,2.23,6.44A11.88,11.88,0,0,1,517.51,69a15.78,15.78,0,0,1-7.43,5.34q-5.08,2-13.83,2-12.36,0-17.61-3.21A14.44,14.44,0,0,1,471.9,64Z"/></g><g class="cls-4"><path class="cls-1" d="M549,18.79v15.6h9.52V45.9H549V60.44a7.18,7.18,0,0,0,.55,3.47,3.27,3.27,0,0,0,3,1.31,20.68,20.68,0,0,0,5.35-1l1.27,10.85a61.71,61.71,0,0,1-12,1.27q-6.46,0-9.52-1.5a9.55,9.55,0,0,1-4.52-4.57q-1.47-3.07-1.47-9.93V45.9h-6.37V34.39h6.37V26.86Z"/></g><g class="cls-4"><path class="cls-1" d="M616.85,58.8H582.18a9.64,9.64,0,0,0,2.25,5.64A8.57,8.57,0,0,0,591,67.11,10.61,10.61,0,0,0,595.82,66a11.07,11.07,0,0,0,3-2.59l17,1.43a23.34,23.34,0,0,1-9.43,8.86q-5.52,2.69-15.85,2.68-9,0-14.11-2.3a20.05,20.05,0,0,1-8.52-7.3A20.52,20.52,0,0,1,564.59,55a19.72,19.72,0,0,1,6.78-15.57q6.78-5.95,18.72-5.95,9.69,0,15.3,2.67a19,19,0,0,1,8.54,7.73q2.93,5.06,2.93,13.17Zm-17.59-7.53q-.51-4.56-2.7-6.53a8.28,8.28,0,0,0-5.76-2,8.12,8.12,0,0,0-6.59,3,10.26,10.26,0,0,0-2,5.52Z"/></g><g class="cls-4"><path class="cls-1" d="M624.92,34.39h16.15v6a22.24,22.24,0,0,1,7-5.33,21,21,0,0,1,8.57-1.58,17.77,17.77,0,0,1,8.55,1.74,13.48,13.48,0,0,1,5.15,5.18,25.79,25.79,0,0,1,7.43-5.47,20.88,20.88,0,0,1,8.27-1.45q7.26,0,11.33,3.92t4.07,12.26V75.41H684.15V52A6.14,6.14,0,0,0,683,47.91a5.37,5.37,0,0,0-4.32-2.12,6.38,6.38,0,0,0-4.91,2q-1.86,2-1.86,6.45V75.41H654.54V52.82a12.9,12.9,0,0,0-.34-3.67,5,5,0,0,0-1.92-2.49,5.48,5.48,0,0,0-3.2-.95,6.42,6.42,0,0,0-4.9,2q-1.92,2-1.92,6.72V75.41H624.92Z"/></g><g class="cls-4"><path class="cls-1" d="M708.75,64l17.17-1.47a7.73,7.73,0,0,0,3,4,9.51,9.51,0,0,0,5.1,1.2,9.26,9.26,0,0,0,5.4-1.35,3,3,0,0,0,1.49-2.51,2.88,2.88,0,0,0-2-2.62,38.66,38.66,0,0,0-7.43-1.62A84,84,0,0,1,719,57a13.12,13.12,0,0,1-5.91-4.11,10,10,0,0,1-2.4-6.6,10.19,10.19,0,0,1,2.59-7,15.56,15.56,0,0,1,7.14-4.38,41.48,41.48,0,0,1,12.19-1.45q8.07,0,11.92,1.12a15.92,15.92,0,0,1,6.42,3.48,18,18,0,0,1,4.27,6.37l-16.4,1.47a5.11,5.11,0,0,0-2.12-2.9,9.34,9.34,0,0,0-4.93-1.24,7.54,7.54,0,0,0-4.27.94A2.76,2.76,0,0,0,726.13,45a2.45,2.45,0,0,0,1.7,2.28q1.7.77,7.39,1.39,8.63.89,12.83,2.47a14,14,0,0,1,6.44,4.51,10.41,10.41,0,0,1,2.23,6.44A11.88,11.88,0,0,1,754.36,69a15.78,15.78,0,0,1-7.43,5.34q-5.08,2-13.83,2-12.36,0-17.61-3.21A14.44,14.44,0,0,1,708.75,64Z"/></g></g></g></svg>