<?xml version="1.0" encoding="utf-8"?>
<!-- Generator: Adobe Illustrator 18.0.0, SVG Export Plug-In . SVG Version: 6.00 Build 0)  -->
<!DOCTYPE svg PUBLIC "-//W3C//DTD SVG 1.1//EN" "http://www.w3.org/Graphics/SVG/1.1/DTD/svg11.dtd">
<svg version="1.1" id="Layer_1" xmlns="http://www.w3.org/2000/svg" xmlns:xlink="http://www.w3.org/1999/xlink" x="0px" y="0px"
	 width="256px" height="95px" viewBox="0 0 256 95" enable-background="new 0 0 256 95" xml:space="preserve">
<g>
	<polygon fill="#CC0000" points="40.3,87.1 40.3,49.2 47.4,49.2 47.4,81.1 64.7,81.1 63.5,87.1 	"/>
	<path fill="#CC0000" d="M88.4,87.1l-3.3-10.6H72.9l-3.4,10.6h-7.3l11.5-37.9h10.7l11.5,37.9H88.4z M80.6,60.1c-0.6-1.9-1-3.9-1.3-6
		h-0.5c-0.4,2-0.8,4.1-1.3,6l-3.2,10.5h9.5L80.6,60.1z"/>
	<path fill="#CC0000" d="M105.1,87.4c-4.3,0-6.2-0.1-11-0.3V49.2c5-0.2,6.8-0.3,11.2-0.3c10.2,0,16.4,1.8,16.4,10.3v0.5
		c0,3.3-1.4,6.4-4.8,8c3.6,1.5,5,4.7,5,8v0.5C121.9,85.6,114.9,87.4,105.1,87.4 M114.8,59.4c0-4.3-3.4-4.7-9.5-4.7H101V65h6.4
		c5.9,0,7.3-1.9,7.3-5.1V59.4z M114.9,75.6c0-3.3-1.6-5.4-7.4-5.4H101v11.4h1.9c7.8,0,11.9-0.1,11.9-5.4V75.6z"/>
	<path fill="#CC0000" d="M135.7,87.9c-5,0-10.1-0.7-11.9-1.2v-5.5c3.1,0.3,6.6,0.6,11.4,0.6c4.6,0,6.8-1.3,6.8-4.7
		c0-2.4-1-3.8-4.7-5.4l-5.7-2.3c-5.6-2.3-8.6-5.5-8.6-11c0-7.4,4.6-10,13.6-10c4.8,0,9.3,0.8,11.1,1.2V55c-2.9-0.3-6.8-0.7-10.8-0.7
		c-4.4,0-6.8,0.8-6.8,3.8c0,2.3,1.1,3.5,4.8,5l5.2,2.1c6.6,2.7,9.3,5.4,9.3,11.8C149.1,84,144.2,87.9,135.7,87.9"/>
	<path d="M7.8,46.4l8.9-15.5c-4-1.7-6.5-4.7-6.5-10.5V20c0-10,7.6-11.8,16.7-11.8c3.8,0,7.3,0.1,10.6,0.3v37.9h-6.9v-14H27
		c-1.2,0-2.3,0-3.3-0.1l-8.4,14H7.8z M17.2,20.4c0,4.9,2.9,6.3,9.4,6.3c1.3,0,2.6,0,3.9-0.1V14.2c-9.3,0-13.4,0.1-13.4,5.9V20.4z"/>
	<polygon points="40.2,46.4 40.2,8.4 64.4,8.4 64.4,14.4 47.4,14.4 47.4,24 63.3,24 63.3,29.7 47.4,29.7 47.4,40.5 64.4,40.5 
		64.4,46.4 	"/>
	<path d="M84.1,46.4H73.7L62.2,8.4h7.3l7.8,26.3c0.7,2.2,1,4.8,1.5,6.8H79c0.4-2,0.9-4.6,1.5-6.8l7.8-26.3h7.2L84.1,46.4z"/>
	<polygon points="94.1,46.4 94.1,8.4 118.2,8.4 118.2,14.4 101.2,14.4 101.2,24 117.2,24 117.2,29.7 101.2,29.7 101.2,40.5 
		118.2,40.5 118.2,46.4 	"/>
	<path d="M143,46.4l-8.4-14c-1,0.1-2.1,0.1-3.3,0.1h-3.5v14h-6.9V8.4c3.4-0.2,6.8-0.3,10.6-0.3c9.1,0,16.7,1.8,16.7,11.8v0.4
		c0,5.8-2.5,8.8-6.5,10.5l8.9,15.5H143z M141.2,20.1c0-5.9-4.1-5.9-13.4-5.9v12.5c1.3,0.1,2.6,0.1,3.9,0.1c6.5,0,9.4-1.4,9.4-6.3
		V20.1z"/>
	<path d="M163.3,47.2c-5,0-10.1-0.7-11.9-1.2v-5.5c3.1,0.3,6.6,0.6,11.4,0.6c4.6,0,6.8-1.3,6.8-4.7c0-2.4-1-3.8-4.7-5.4l-5.7-2.3
		c-5.6-2.3-8.6-5.5-8.6-11c0-7.4,4.6-10,13.6-10c4.8,0,9.3,0.8,11.1,1.2v5.4c-2.9-0.3-6.8-0.7-10.8-0.7c-4.4,0-6.8,0.8-6.8,3.8
		c0,2.3,1.1,3.5,4.8,5l5.2,2.1c6.6,2.7,9.3,5.4,9.3,11.8C176.8,43.3,171.8,47.2,163.3,47.2"/>
	<rect x="177.9" y="8.4" width="7.1" height="37.9"/>
	<path d="M209,46.4l-12.1-22.5c-0.9-1.7-2-3.8-2.9-5.7h-0.1c0.1,2.1,0.2,4.5,0.2,6.8v21.4h-6.5V8.4h8.3l12.1,22
		c0.9,1.7,2.1,3.9,2.9,5.8h0.1c-0.2-2.2-0.2-4.9-0.2-7.2V8.4h6.6v37.9H209z"/>
	<path d="M234.8,47.2c-8.7,0-15.9-3.4-15.9-17.1v-5.4c0-14.5,8.2-17,16-17c5.6,0,11,0.9,12.2,1.3v5.5c-2.4-0.2-8.4-0.5-11-0.5
		c-6.2,0-10.2,1.4-10.2,10.8v5.4c0,8.7,3.2,10.9,9.3,10.9c1.9,0,3.8-0.1,5.1-0.2v-9.2l-2.9,0v-5.4h9.7V46
		C245.1,46.5,240.3,47.2,234.8,47.2"/>
</g>
</svg>
