<svg id="Layer_1" data-name="Layer 1" xmlns="http://www.w3.org/2000/svg" xmlns:xlink="http://www.w3.org/1999/xlink" viewBox="0 0 743.68 150.23"><defs><style>.cls-1{fill:none;}.cls-2{clip-path:url(#clip-path);}.cls-3{clip-path:url(#clip-path-2);}.cls-4{fill:#d52027;fill-rule:evenodd;}</style><clipPath id="clip-path" transform="translate(-0.57 -1.02)"><rect class="cls-1" x="0.57" y="1.02" width="743.68" height="150.23"/></clipPath><clipPath id="clip-path-2" transform="translate(-0.57 -1.02)"><rect class="cls-1" x="0.57" y="1.02" width="743.68" height="150.23"/></clipPath></defs><title>mojposao</title><g id="MojPosao_CMYK" data-name="MojPosao CMYK"><g class="cls-2"><g class="cls-3"><path class="cls-4" d="M135,7.09V113.32h-33.4V39q-9,28.52-26.6,74.36H53.93Q36,67.48,26.86,39h0v74.36H.57V7.09h45q7.48,19.62,11.46,31,6.6,18.63,11.44,34.39h.32q6.44-22,22.22-65.41Z" transform="translate(-0.57 -1.02)"/><path class="cls-4" d="M192.15,115.14q-19.46,0-32.13-10.93Q146.72,93,146.72,74.47q0-17.76,13.62-28.68,12.82-10.17,31.82-10.17,18.68,0,31.66,10.32,13.93,10.92,13.93,28.53,0,18.66-13.3,29.89-12.51,10.78-32.3,10.78m0-66q-7.44,0-10.92,9.71a46.64,46.64,0,0,0-2.38,15.63q0,27.16,13.3,27.16,13.46,0,13.46-27.16a47.29,47.29,0,0,0-2.37-15.78q-3.49-9.56-11.09-9.56" transform="translate(-0.57 -1.02)"/><path class="cls-4" d="M238.85,151.25V142.6a12.18,12.18,0,0,0,9.34-6.37q1.42-5.16,1.42-16.85V37.44h31.66v81.34q0,19.58-11.55,26.71-9.34,5.76-30.88,5.77M265.21,32.59a15.91,15.91,0,0,1-11.5-4.78,15.11,15.11,0,0,1-4.89-11.15q0-6.07,5.12-10.85A16.35,16.35,0,0,1,265.36,1a17,17,0,0,1,11.75,4.63,14.36,14.36,0,0,1,5.12,11,14.74,14.74,0,0,1-5.12,11.23,17,17,0,0,1-11.9,4.71" transform="translate(-0.57 -1.02)"/><path class="cls-4" d="M336.22,56.56l4.59-.45a16.27,16.27,0,0,0,10.77-5.46A16,16,0,0,0,356,39.57Q356,27,340,27h-9v86.35H297.59V7.09h45.91q18.84,0,30.08,6.22Q388,21,388,37.75T373.59,65.37q-13.3,9.85-31.35,9.86h-6Z" transform="translate(-0.57 -1.02)"/><path class="cls-4" d="M438.56,115.14q-19.47,0-32.14-10.93Q393.12,93,393.12,74.47q0-17.76,13.61-28.68,12.83-10.17,31.82-10.17,18.68,0,31.66,10.32,13.94,10.92,13.93,28.53,0,18.66-13.3,29.89-12.5,10.78-32.3,10.78m0-66q-7.44,0-10.92,9.71a46.63,46.63,0,0,0-2.37,15.63q0,27.16,13.3,27.16,13.46,0,13.46-27.16a47.22,47.22,0,0,0-2.37-15.78q-3.49-9.56-11.09-9.56" transform="translate(-0.57 -1.02)"/><path class="cls-4" d="M551.43,40.93l-6.61,13.66q-6.77-3.48-11.64-3.49-6.45,0-6.45,5.46,0,4,5,7.59,3.46,2.43,11.57,7.89t10.15,12.9a30.83,30.83,0,0,1,.63,7.43q0,7.14-8.07,14.27-9.66,8.5-24.54,8.5-19.16,0-29.76-7.13l6.65-15.48q11.56,6.53,17.1,6.53,7.44,0,7.44-6.51,0-2.88-4.75-6.66a110.18,110.18,0,0,0-10.61-7.12q-12.51-7.87-12.51-20.13,0-10.61,9.5-17.11a34.48,34.48,0,0,1,20.1-5.9,67,67,0,0,1,26.76,5.31" transform="translate(-0.57 -1.02)"/><path class="cls-4" d="M612.43,69.92l-9,3.34q-11.72,4.4-11.72,15.17a9,9,0,0,0,2.37,6.07,7.47,7.47,0,0,0,5.86,2.73q7.6,0,10.77-10.93a49.36,49.36,0,0,0,1.74-16.39m-.95,35.2L607,107.4q-15,7.74-21.06,7.74a22.07,22.07,0,0,1-16.22-6.75A21.74,21.74,0,0,1,563,92.52q0-12.9,9.5-20.18,7.13-5.61,21.85-9.11L612.58,59a13.06,13.06,0,0,0-5.38-5.38,15.07,15.07,0,0,0-7.6-2.21q-11.24,0-20.9,8.2L570,45.94a63.29,63.29,0,0,1,35.3-10.32q37.84,0,37.84,31.72V94.81q0,11.53,2.69,18.51H612.9a19.51,19.51,0,0,1-1.42-8.2" transform="translate(-0.57 -1.02)"/><path class="cls-4" d="M698.66,115.14q-19.47,0-32.14-10.93Q653.22,93,653.22,74.47q0-17.76,13.62-28.68,12.82-10.17,31.82-10.17,18.68,0,31.67,10.32,13.93,10.92,13.93,28.53,0,18.66-13.3,29.89-12.51,10.78-32.3,10.78m0-66q-7.44,0-10.92,9.71a46.52,46.52,0,0,0-2.38,15.63q0,27.16,13.3,27.16,13.46,0,13.46-27.16a47.16,47.16,0,0,0-2.37-15.78q-3.48-9.56-11.08-9.56" transform="translate(-0.57 -1.02)"/></g></g></g></svg>