<?xml version="1.0" encoding="UTF-8" standalone="no"?>
<!-- Created with Inkscape (http://www.inkscape.org/) -->

<svg
   xmlns:dc="http://purl.org/dc/elements/1.1/"
   xmlns:cc="http://creativecommons.org/ns#"
   xmlns:rdf="http://www.w3.org/1999/02/22-rdf-syntax-ns#"
   xmlns:svg="http://www.w3.org/2000/svg"
   xmlns="http://www.w3.org/2000/svg"
   xmlns:sodipodi="http://sodipodi.sourceforge.net/DTD/sodipodi-0.dtd"
   xmlns:inkscape="http://www.inkscape.org/namespaces/inkscape"
   version="1.1"
   id="svg256"
   xml:space="preserve"
   width="648.55103"
   height="193.85947"
   viewBox="0 0 648.55102 193.85947"
   sodipodi:docname="nsoft.svg"
   inkscape:version="0.92.1 r15371"><metadata
     id="metadata262"><rdf:RDF><cc:Work
         rdf:about=""><dc:format>image/svg+xml</dc:format><dc:type
           rdf:resource="http://purl.org/dc/dcmitype/StillImage" /><dc:title></dc:title></cc:Work></rdf:RDF></metadata><defs
     id="defs260"><clipPath
       clipPathUnits="userSpaceOnUse"
       id="clipPath272"><path
         d="M 0,284.008 H 612.288 V 0 H 0 Z"
         id="path270"
         inkscape:connector-curvature="0" /></clipPath></defs><sodipodi:namedview
     pagecolor="#ffffff"
     bordercolor="#666666"
     borderopacity="1"
     objecttolerance="10"
     gridtolerance="10"
     guidetolerance="10"
     inkscape:pageopacity="0"
     inkscape:pageshadow="2"
     inkscape:window-width="3840"
     inkscape:window-height="1600"
     id="namedview258"
     showgrid="false"
     inkscape:zoom="0.62322187"
     inkscape:cx="332.07119"
     inkscape:cy="93.28133"
     inkscape:window-x="0"
     inkscape:window-y="20"
     inkscape:window-maximized="0"
     inkscape:current-layer="g264" /><g
     id="g264"
     inkscape:groupmode="layer"
     inkscape:label="NSoft_logo_cmyk"
     transform="matrix(1.3333333,0,0,-1.3333333,-76.120798,289.91679)"><g
       id="g266"><g
         id="g268"
         clip-path="url(#clipPath272)"><g
           id="g274"
           transform="translate(426.9248,122.6782)"><path
             d="m 0,0 v 15.866 c 0,6.031 -3.146,9.442 -9.969,9.442 -6.818,0 -9.966,-3.411 -9.966,-9.442 V 0 c 0,-6.033 3.148,-9.444 9.966,-9.444 C -3.146,-9.444 0,-6.033 0,0 m -38.817,0.525 v 14.814 c 0,13.117 6.162,25.838 28.848,25.838 22.69,0 28.852,-12.721 28.852,-25.838 V 0.525 c 0,-13.117 -6.162,-25.837 -28.852,-25.837 -22.686,0 -28.848,12.72 -28.848,25.837"
             style="fill:#4474b9;fill-opacity:1;fill-rule:nonzero;stroke:none"
             id="path276"
             inkscape:connector-curvature="0" /></g><g
           id="g278"
           transform="translate(497.084,174.6074)"><path
             d="m 0,0 c -2.626,0.525 -6.168,0.916 -8.396,0.916 -6.036,0 -6.424,-2.621 -6.424,-6.818 v -7.474 H 0.263 L -1.055,-28.852 H -14.82 V -75.93 h -18.885 v 47.078 h -9.706 v 15.476 h 9.706 v 9.572 c 0,13.112 6.165,20.455 21.635,20.455 5.378,0 9.31,-0.784 14.43,-1.832 z"
             style="fill:#4474b9;fill-opacity:1;fill-rule:nonzero;stroke:none"
             id="path280"
             inkscape:connector-curvature="0" /></g><g
           id="g282"
           transform="translate(529.3379,97.3657)"><path
             d="m 0,0 c -12.198,0 -19.279,4.593 -19.279,16.391 v 33.573 h -8.655 v 15.213 h 8.655 v 15.342 l 18.885,2.626 V 65.177 h 14.56 L 13.114,49.964 H -0.394 v -30.95 c 0,-2.623 1.578,-3.541 3.935,-3.541 2.103,0 5.116,0.262 7.868,1.183 L 13.636,2.361 C 9.439,0.921 4.326,0 0,0"
             style="fill:#4474b9;fill-opacity:1;fill-rule:nonzero;stroke:none"
             id="path284"
             inkscape:connector-curvature="0" /></g><g
           id="g286"
           transform="translate(239.5259,158.6592)"><path
             d="M 0,0 V -61.839 H -20.189 V 32.188 H 5.79 l 30.918,-64.804 v 64.804 h 20.19 V -61.839 H 30.78 Z"
             style="fill:#4474b9;fill-opacity:1;fill-rule:nonzero;stroke:none"
             id="path288"
             inkscape:connector-curvature="0" /></g><g
           id="g290"
           transform="translate(342.3066,95.4111)"><path
             d="m 0,0 c -10.871,0 -22.311,2.397 -30.355,6.065 l 3.525,16.38 c 8.616,-2.682 17.368,-4.519 27.107,-4.519 10.874,0 12.992,2.119 12.992,10.026 0,8.471 -0.422,9.459 -15.813,12.846 -22.729,4.941 -26.12,9.459 -26.12,29.79 0,18.775 6.636,26.262 32.474,26.262 8.188,0 18.072,-0.849 28.519,-3.109 L 30.21,75.954 c -10.728,1.833 -17.644,2.679 -26.115,2.679 -9.457,0 -11.581,-1.692 -11.581,-8.611 0,-9.032 0.424,-9.176 15.251,-12.705 C 33.178,51.242 34.448,46.305 34.448,27.807 34.448,9.171 28.375,0 0,0"
             style="fill:#4474b9;fill-opacity:1;fill-rule:nonzero;stroke:none"
             id="path292"
             inkscape:connector-curvature="0" /></g><g
           id="g294"
           transform="translate(149.7256,72.043)"><path
             d="M 0,0 9.93,8.847 9.925,8.85 H 28.89 c 3.405,0 6.162,2.759 6.162,6.159 v 97.054 z"
             style="fill:#4474b9;fill-opacity:1;fill-rule:nonzero;stroke:none"
             id="path296"
             inkscape:connector-curvature="0" /></g><g
           id="g298"
           transform="translate(82.2056,208.5796)"><path
             d="m 0,0 h -18.953 c -3.402,0 -6.162,-2.757 -6.162,-6.165 v -97.048 L 9.94,8.858 Z"
             style="fill:#4474b9;fill-opacity:1;fill-rule:nonzero;stroke:none"
             id="path300"
             inkscape:connector-curvature="0" /></g><g
           id="g302"
           transform="translate(184.7778,200.4321)"><path
             d="m 0,0 v 1.983 c 0,3.408 -2.757,6.164 -6.163,6.164 h -80.713 l 37.933,-58.356 -30.248,17.924 -48.496,-79.107 v -1.988 c 0,-3.4 2.76,-6.159 6.162,-6.159 h 80.712 l -37.931,58.353 30.248,-17.926 z"
             style="fill:#4474b9;fill-opacity:1;fill-rule:nonzero;stroke:none"
             id="path304"
             inkscape:connector-curvature="0" /></g></g></g></g></svg>