<?xml version="1.0" encoding="UTF-8" standalone="no"?>
<!-- Created with Inkscape (http://www.inkscape.org/) -->

<svg
   xmlns:dc="http://purl.org/dc/elements/1.1/"
   xmlns:cc="http://creativecommons.org/ns#"
   xmlns:rdf="http://www.w3.org/1999/02/22-rdf-syntax-ns#"
   xmlns:svg="http://www.w3.org/2000/svg"
   xmlns="http://www.w3.org/2000/svg"
   xmlns:sodipodi="http://sodipodi.sourceforge.net/DTD/sodipodi-0.dtd"
   xmlns:inkscape="http://www.inkscape.org/namespaces/inkscape"
   version="1.1"
   id="svg29"
   xml:space="preserve"
   width="637.73236"
   height="139.65906"
   viewBox="0 0 637.73236 139.65906"
   sodipodi:docname="tvbeat.svg"
   inkscape:version="0.92.1 r15371"><metadata
     id="metadata35"><rdf:RDF><cc:Work
         rdf:about=""><dc:format>image/svg+xml</dc:format><dc:type
           rdf:resource="http://purl.org/dc/dcmitype/StillImage" /><dc:title></dc:title></cc:Work></rdf:RDF></metadata><defs
     id="defs33"><clipPath
       clipPathUnits="userSpaceOnUse"
       id="clipPath49"><path
         d="M 0,566.93 H 566.93 V 0 H 0 Z"
         id="path47"
         inkscape:connector-curvature="0" /></clipPath><clipPath
       clipPathUnits="userSpaceOnUse"
       id="clipPath73"><path
         d="m 109.808,293.652 h 31.829 v -62.559 h -31.829 z"
         id="path71"
         inkscape:connector-curvature="0" /></clipPath><clipPath
       clipPathUnits="userSpaceOnUse"
       id="clipPath89"><path
         d="M 87.6895,266.59 H 114.201 V 231.093 H 87.6895 Z"
         id="path87"
         inkscape:connector-curvature="0" /></clipPath><clipPath
       clipPathUnits="userSpaceOnUse"
       id="clipPath105"><path
         d="M 65.9517,251.268 H 89.3945 V 231.093 H 65.9517 Z"
         id="path103"
         inkscape:connector-curvature="0" /></clipPath><clipPath
       clipPathUnits="userSpaceOnUse"
       id="clipPath121"><path
         d="M 44.3149,242.021 H 65.9131 V 231.093 H 44.3149 Z"
         id="path119"
         inkscape:connector-curvature="0" /></clipPath><clipPath
       clipPathUnits="userSpaceOnUse"
       id="clipPath137"><path
         d="m 44.3149,231.093 h 19.4126 v 0 z"
         id="path135"
         inkscape:connector-curvature="0" /></clipPath></defs><sodipodi:namedview
     pagecolor="#ffffff"
     bordercolor="#666666"
     borderopacity="1"
     objecttolerance="10"
     gridtolerance="10"
     guidetolerance="10"
     inkscape:pageopacity="0"
     inkscape:pageshadow="2"
     inkscape:window-width="3840"
     inkscape:window-height="1620"
     id="namedview31"
     showgrid="false"
     inkscape:zoom="1.860018"
     inkscape:cx="318.86654"
     inkscape:cy="69.830272"
     inkscape:window-x="0"
     inkscape:window-y="0"
     inkscape:window-maximized="0"
     inkscape:current-layer="g37" /><g
     id="g37"
     inkscape:groupmode="layer"
     inkscape:label="logo color"
     transform="matrix(1.3333333,0,0,-1.3333333,-59.086799,447.78212)"><g
       id="g39"
       transform="translate(176.7812,308.0039)"><path
         d="M 0,0 H 20.51 L 28.418,-53.765 58.596,0 H 79.105 L 32.448,-76.911 H 13.991 Z"
         style="fill:#3871c1;fill-opacity:1;fill-rule:nonzero;stroke:none"
         id="path41"
         inkscape:connector-curvature="0" /></g><g
       id="g43"><g
         id="g45"
         clip-path="url(#clipPath49)"><g
           id="g51"
           transform="translate(265.1606,248.8926)"><path
             d="m 0,0 c 4.15,-1.417 9.156,-2.123 15.015,-2.123 11.721,0 19.289,8.519 22.706,25.561 2.587,13.04 -0.438,19.559 -9.083,19.559 -8.009,0 -15.918,-6.201 -23.732,-18.605 z M -2.051,86.944 H 17.357 L 8.128,40.798 c 8.252,12.209 18.385,18.313 30.401,18.313 16.992,0 23.143,-11.818 18.457,-35.454 C 51.419,-3.98 36.111,-17.8 11.058,-17.8 c -10.545,0 -21.68,1.05 -33.399,3.153 z"
             style="fill:#231f20;fill-opacity:1;fill-rule:nonzero;stroke:none"
             id="path53"
             inkscape:connector-curvature="0" /></g><g
           id="g55"
           transform="translate(344.6055,276.2148)"><path
             d="m 0,0 h 19.41 c 8.056,0 12.647,2.76 13.77,8.277 1.072,5.519 -3.077,8.276 -12.451,8.276 C 9.986,16.553 3.076,11.034 0,0 m 52.005,8.788 c -3.075,-15.334 -14.94,-23 -35.599,-23 H -2.858 c -2.051,-10.351 3.665,-15.528 17.14,-15.528 10.206,0 19.824,3.174 28.86,9.522 L 40.066,-35.6 c -8.059,-6.348 -18.166,-9.522 -30.327,-9.522 -25.439,0 -35.548,13.112 -30.322,39.336 5.028,25.049 19.827,37.575 44.389,37.575 21.874,0 31.273,-7.665 28.199,-23.001"
             style="fill:#231f20;fill-opacity:1;fill-rule:nonzero;stroke:none"
             id="path57"
             inkscape:connector-curvature="0" /></g><g
           id="g59"
           transform="translate(453.7158,290.5713)"><path
             d="m 0,0 c -2.933,1.17 -7.815,1.758 -14.647,1.758 -12.455,0 -20.244,-7.889 -23.366,-23.659 -2.885,-14.311 -0.494,-21.461 7.176,-21.461 9.473,0 18.212,6.688 26.221,20.067 z M 7.545,-59.479 H -9.671 l 1.761,19.778 c -8.4,-13.186 -18.362,-19.778 -29.889,-19.778 -17.967,0 -24.46,12.48 -19.482,37.432 5.277,26.319 21.218,39.48 47.83,39.48 8.935,0 19.509,-1.052 31.718,-3.148 z"
             style="fill:#231f20;fill-opacity:1;fill-rule:nonzero;stroke:none"
             id="path61"
             inkscape:connector-curvature="0" /></g><g
           id="g63"
           transform="translate(489.9424,320.457)"><path
             d="m 0,0 h 14.36 l 0.439,-12.453 H 32.672 L 29.593,-27.836 H 13.846 L 6.738,-63.214 c -1.417,-7.178 0.979,-10.768 7.18,-10.768 h 6.446 L 17.289,-89.364 H 1.465 c -12.892,0 -17.942,6.909 -15.163,20.73 z"
             style="fill:#231f20;fill-opacity:1;fill-rule:nonzero;stroke:none"
             id="path65"
             inkscape:connector-curvature="0" /></g><g
           id="g67"><g
             id="g69" /><g
             id="g81"><g
               clip-path="url(#clipPath73)"
               id="g79"
               style="opacity:0.80000299"><g
                 transform="translate(122.3232,293.6523)"
                 id="g77"><path
                   d="m 0,0 -12.516,-62.56 h 9.705 c 5.36,0 10.977,6.408 12.548,14.313 L 19.313,0 Z"
                   style="fill:#3871c1;fill-opacity:1;fill-rule:nonzero;stroke:none"
                   id="path75"
                   inkscape:connector-curvature="0" /></g></g></g></g><g
           id="g83"><g
             id="g85" /><g
             id="g97"><g
               clip-path="url(#clipPath89)"
               id="g95"
               style="opacity:0.60000598"><g
                 transform="translate(114.2007,266.5898)"
                 id="g93"><path
                   d="m 0,0 h -19.411 l -7.1,-35.497 h 19.41 z"
                   style="fill:#3871c1;fill-opacity:1;fill-rule:nonzero;stroke:none"
                   id="path91"
                   inkscape:connector-curvature="0" /></g></g></g></g><g
           id="g99"><g
             id="g101" /><g
             id="g113"><g
               clip-path="url(#clipPath105)"
               id="g111"
               style="opacity:0.39999402"><g
                 transform="translate(89.3945,251.2676)"
                 id="g109"><path
                   d="m 0,0 h -19.41 l -4.033,-20.175 h 19.411 z"
                   style="fill:#3871c1;fill-opacity:1;fill-rule:nonzero;stroke:none"
                   id="path107"
                   inkscape:connector-curvature="0" /></g></g></g></g><g
           id="g115"><g
             id="g117" /><g
             id="g129"><g
               clip-path="url(#clipPath121)"
               id="g127"
               style="opacity:0.19999701"><g
                 transform="translate(65.9131,242.0215)"
                 id="g125"><path
                   d="m 0,0 h -19.41 l -2.188,-10.929 h 19.412 z"
                   style="fill:#3871c1;fill-opacity:1;fill-rule:nonzero;stroke:none"
                   id="path123"
                   inkscape:connector-curvature="0" /></g></g></g></g><g
           id="g131"><g
             id="g133" /><g
             id="g145"><g
               clip-path="url(#clipPath137)"
               id="g143"
               style="opacity:0.19999701"><g
                 transform="translate(63.7275,231.0928)"
                 id="g141"><path
                   d="M 0,0 H -19.413"
                   style="fill:#3871c1;fill-opacity:1;fill-rule:nonzero;stroke:none"
                   id="path139"
                   inkscape:connector-curvature="0" /></g></g></g></g><g
           id="g147"
           transform="translate(149.8691,320.457)"><path
             d="m 0,0 h 14.356 l 0.44,-12.453 H 32.667 L 29.59,-27.836 H 13.843 L 6.738,-63.214 c -1.415,-7.178 0.977,-10.768 7.178,-10.768 h 6.445 L 17.285,-89.364 H 1.464 c -12.891,0 -17.948,6.909 -15.161,20.73 z"
             style="fill:#3871c1;fill-opacity:1;fill-rule:nonzero;stroke:none"
             id="path149"
             inkscape:connector-curvature="0" /></g></g></g></g></svg>